<svg  viewBox="0 0 30 28" fill="none" xmlns="http://www.w3.org/2000/svg">
<path d="M9.54337 3.30445L9.54268 3.30746L9.11859 5.15255C8.95518 5.84785 8.36733 6.3078 7.69657 6.3078H4.17652C2.42221 6.3078 1.02132 7.75607 1.02132 9.49973V23.1618C1.02132 24.9054 2.42221 26.3537 4.17652 26.3537H25.8235C27.5778 26.3537 28.9787 24.9054 28.9787 23.1618V9.49973C28.9787 7.75607 27.5778 6.3078 25.8235 6.3078H22.3034C21.6288 6.3078 21.0399 5.84439 20.882 5.15521L20.8819 5.15457L20.4573 3.30746L20.4566 3.30445C20.2319 2.34081 19.3823 1.64632 18.3803 1.64632H11.6197C10.6177 1.64632 9.76807 2.34081 9.54337 3.30445Z" stroke="white" stroke-width="1.95736"/>
<path d="M20.7636 15.273C20.7636 18.5339 18.1683 21.1493 15.001 21.1493C11.8338 21.1493 9.23844 18.5339 9.23844 15.273C9.23844 12.0121 11.8338 9.39665 15.001 9.39665C18.1683 9.39665 20.7636 12.0121 20.7636 15.273Z" stroke="white" stroke-width="1.95736"/>
</svg>
