<svg  viewBox="0 0 22 20" fill="none" xmlns="http://www.w3.org/2000/svg">
<path fill-rule="evenodd" clip-rule="evenodd" d="M0.53099 0.666216C0.53099 0.408483 0.739923 0.19955 0.997656 0.19955L5.19766 0.199549C5.45539 0.199549 5.66432 0.408483 5.66432 0.666216C5.66432 0.923949 5.45539 1.13288 5.19766 1.13288L2.12429 1.13288L8.49431 7.5029L7.83434 8.16287L1.46432 1.79285L1.46432 4.86622C1.46432 5.12395 1.25539 5.33288 0.997656 5.33288C0.739923 5.33288 0.530989 5.12395 0.530989 4.86622L0.53099 0.666216Z" fill="white"/>
<path fill-rule="evenodd" clip-rule="evenodd" d="M0.532943 19.3318C0.532943 19.5896 0.741876 19.7985 0.999609 19.7985L5.19961 19.7985C5.45734 19.7985 5.66628 19.5896 5.66628 19.3318C5.66628 19.0741 5.45734 18.8652 5.19961 18.8652L2.12624 18.8652L8.49626 12.4951L7.83629 11.8352L1.46628 18.2052L1.46628 15.1318C1.46628 14.8741 1.25734 14.6652 0.999609 14.6652C0.741876 14.6652 0.532942 14.8741 0.532942 15.1318L0.532943 19.3318Z" fill="white"/>
<path fill-rule="evenodd" clip-rule="evenodd" d="M21.4671 19.3318C21.4671 19.5896 21.2581 19.7985 21.0004 19.7985L16.8004 19.7985C16.5427 19.7985 16.3337 19.5896 16.3337 19.3318C16.3337 19.0741 16.5427 18.8652 16.8004 18.8652L19.8738 18.8652L13.5037 12.4951L14.1637 11.8352L20.5337 18.2052L20.5337 15.1318C20.5337 14.8741 20.7427 14.6652 21.0004 14.6652C21.2581 14.6652 21.4671 14.8741 21.4671 15.1318L21.4671 19.3318Z" fill="white"/>
<path fill-rule="evenodd" clip-rule="evenodd" d="M21.4671 0.666216C21.4671 0.408483 21.2581 0.19955 21.0004 0.19955L16.8004 0.199549C16.5427 0.199549 16.3337 0.408483 16.3337 0.666216C16.3337 0.923949 16.5427 1.13288 16.8004 1.13288L19.8738 1.13288L13.5037 7.5029L14.1637 8.16287L20.5337 1.79285L20.5337 4.86622C20.5337 5.12395 20.7427 5.33288 21.0004 5.33288C21.2581 5.33288 21.4671 5.12395 21.4671 4.86622L21.4671 0.666216Z" fill="white"/>
</svg>
